<svg id="Layer_1" data-name="Layer 1" xmlns="http://www.w3.org/2000/svg" viewBox="0 0 706 734.84"><defs><style>.cls-1{fill:#3a5e4d;}.cls-2{fill:#edefeb;}.cls-3{fill:#ecbd00;}.cls-4{fill:#dadbdb;}.cls-5{fill:#da9901;}.cls-6{fill:#0d0e0a;}.cls-7{fill:#fff;}</style></defs><path class="cls-1" d="M406.38,4.76l-.19-.08a1.94,1.94,0,0,0-2-1,11.82,11.82,0,0,0-5-2.12c-14.61-3.68-28-.68-40.4,7.56-7.47,5-13.6,11.23-19.36,18.12-8.7,10.38-14.05,22.31-18.22,35-.47.28-.78.64-.57,1.24-.16.73-.33,1.46-.5,2.2-1.46,1.55-1.36,3.66-1.94,5.51s-1.58,3-3.34,3.08a4.44,4.44,0,0,1-4-2.32c-.64-1.07-.88-2.37-1.43-3.51-2.18-4.55-3.87-9.31-7-13.42-4.87-6.4-11.21-10.4-18.54-13.57-12.32-5.32-23.52-3-34.47,3.51a53.9,53.9,0,0,0-4.87,3.43C231.2,60,231.7,77.19,245.7,87.94c1.29,1,2.64,1.91,3.92,2.93,3,2.35,6.14,4.49,8.22,7.78-.95,1.19-2.23,1.34-3.35,1.75-13.58,4.91-27.29,9.46-40.19,16.1-9.49,4.88-18.88,9.86-28,15.39-13.95,8.44-26.71,18.43-39.16,28.87-6.54,5.48-12.42,11.62-18.51,17.55a96,96,0,0,0-11,12c-5.29,7.32-11.44,14-16.23,21.7-5.78,9.34-12,18.34-16.91,28.27-2.37,4.83-4.32,9.86-6.88,14.57-4.23,7.8-7.13,16.13-9.92,24.45-2.68,8-4.75,16.27-7.32,24.29-4.24,13.26-6.38,27-10.38,40.3-2.58,8.6-5.78,17-8.29,25.57-.72,2.48-2.69,4.16-3.56,6.62-4,11.39-9.52,22.18-14.4,33.21C19.89,418,16.24,426.83,13,435.81a246.66,246.66,0,0,0-7,24.3A202.09,202.09,0,0,0,0,501.16c-.2,5.11.64,10.14.78,15.21.43,15.07,1.64,29.92,6.6,44.41,4,11.64,7.38,23.45,13.88,34a8.74,8.74,0,0,1,.12,2.15,55.91,55.91,0,0,0,1.12,26.18c2.6,9.16,6.18,17.66,13.34,24.26a60.37,60.37,0,0,0,6.3,8.05c3.19,3.72,6.7,7.07,11.18,9.2a91.15,91.15,0,0,0,21.5,7c6.05,1.2,12.25.39,18.21,2,6.37,5.51,14,8.94,21.12,13.28,12,7.35,25,12.25,38.08,17,15.52,5.59,31.06,10.89,47.32,14,11.72,2.27,23.23,5.63,35,7.88a414.8,414.8,0,0,0,61.55,7.06c19.57.78,39.16,1.5,58.75,1.88,15.77.3,31.53,0,47.31-.89q28.29-1.51,56.38-4.78c9.51-1.1,19.14-1.95,28.44-4.58,6.63-1,13.19-2.23,19.74-3.7,12.09-2.7,23.56-7.28,35.11-11.48,26.48-9.64,51.85-21.59,74.88-38.1,12.53-9,24.93-18.12,36.1-28.79C666.33,629.49,676.36,614,685.73,598a165.36,165.36,0,0,0,12.53-27.7c4.29-11.86,4.86-24.44,6.52-36.79,2-15.13.88-30.39,1-45.6.07-7.8-1.76-15.44-3-23.11-4.43-27.93-14.49-53.71-29.47-77.71-8.63-13.84-16.94-27.91-24.22-42.52C643.87,334,640,322.83,635.48,312c-1.45-3.51-3.67-6.83-4.45-10.46-3.33-15.34-9.15-29.83-16-43.76-8-16.4-16.88-32.48-28.16-47-5-6.44-9.8-13.08-15.81-18.66a89.7,89.7,0,0,1-8.49-9.17c-4.44-5.47-9.81-10-14.65-15.08-5.74-6-12-11.54-17.79-17.52a76,76,0,0,0-16.62-13.07c-4.54-2.64-9.41-4.85-13.59-8-12.26-9.19-25.65-16.39-39.35-23.08a123.47,123.47,0,0,0-25.6-9c-11.63-2.77-23.35-5.12-34.85-8.49-3.6-1-7.17-2.63-11.08-2.49h0a2.25,2.25,0,0,0-2.25-1l0,0c.36-1.23,1.55-1.4,2.46-1.92,5.34-3,10.85-5.85,15.53-9.86,12.3-10.53,20.72-23,19.93-40.12-.55-12-5.27-21.54-16.25-27.36l-.27-.12A1.82,1.82,0,0,0,406.38,4.76Z"/><path class="cls-2" d="M21.29,594.82c-6.5-10.59-9.89-22.4-13.88-34-5-14.49-6.17-29.34-6.6-44.41-.14-5.07-1-10.1-.78-15.21a202.09,202.09,0,0,1,6-41.05,246.66,246.66,0,0,1,7-24.3c3.22-9,6.87-17.79,10.74-26.55,4.88-11,10.37-21.82,14.4-33.21.87-2.46,2.84-4.14,3.56-6.62,2.51-8.6,5.71-17,8.29-25.57,4-13.3,6.14-27,10.38-40.3,2.57-8,4.64-16.28,7.32-24.29,2.79-8.32,5.69-16.65,9.92-24.45,2.56-4.71,4.51-9.74,6.88-14.57,4.87-9.93,11.13-18.93,16.91-28.27,4.79-7.72,10.94-14.38,16.23-21.7a96,96,0,0,1,11-12c6.09-5.93,12-12.07,18.51-17.55,12.45-10.44,25.21-20.43,39.16-28.87,9.14-5.53,18.53-10.51,28-15.39,12.9-6.64,26.61-11.19,40.19-16.1,1.12-.41,2.4-.56,3.35-1.75-2.08-3.29-5.26-5.43-8.22-7.78-1.28-1-2.63-1.94-3.92-2.93-14-10.75-14.5-28-1.12-39.61a53.9,53.9,0,0,1,4.87-3.43c5.06,0,10.12-.13,15.17.06,8.56.33,15.36,4.38,21.18,10.41s9,13.85,14.64,20c3.32,3.63,7.25,5.15,11.56,6.42a3.55,3.55,0,0,0,3.85-1.47c3.26-4.35,5.5-9,4.36-14.73.17-.74.34-1.47.5-2.2l.57-1.24c4.17-12.64,9.52-24.57,18.22-34.95,5.76-6.89,11.89-13.16,19.36-18.12,12.4-8.24,25.79-11.24,40.4-7.56a11.82,11.82,0,0,1,5,2.12,2.12,2.12,0,0,0,2,1l.19.08a2.08,2.08,0,0,0,1.83,1.08l.27.12c-.08,1.91,1.06,3.43,1.63,5.14,2.94,8.93,4.22,17.84.92,27.1-4.76,13.35-11.6,25.33-21.78,35.31a50.34,50.34,0,0,0-4.55,4.69c-2.29,2.93-1.55,5.15,2.11,7l0,0a2.06,2.06,0,0,0,2.25,1h0c-.1,2.38,1.6,3.41,3.28,4.59,3.86,2.71,8.37,4.52,12,7.43,6.9,5.53,13.8,11,20.82,16.43s13.82,11.13,20.39,17c12,10.76,24.64,20.87,35.32,33,6,6.78,12.39,13.18,17.66,20.58s10.36,15.27,15.36,23c7.94,12.36,15.13,25.15,22.05,38.08,6.08,11.35,11.18,23.19,16.49,34.91a144.17,144.17,0,0,1,13.06,60c0,10,.41,20-.11,29.95-.63,12.4,1,24.2,6.78,35.27,1.51,2.89,3,5.78,4.67,8.58,3.41,5.78,6.77,11.68,11.23,16.65,6.15,6.88,12.27,13.79,18.44,20.65A148.66,148.66,0,0,1,626.08,479c2.2,3.95,4.82,7.82,5.72,12.29a122,122,0,0,0,3.49,13.1c1.55,4.84,3.1,9.79,3.11,14.83,0,15.89,1.21,31.83-3.09,47.55-3.91,14.32-7.14,28.83-13.58,42.34A270.93,270.93,0,0,1,591.09,659c-3.64,4.67-7.13,9.63-12.06,13.2-10.12,7.32-19.58,15.49-29.84,22.61-8.49,5.9-17,11.4-26.94,15-11.06,4-22.4,7.37-33,12.6-1,.5-2,.82-2.25,2.06-9.3,2.63-18.93,3.48-28.44,4.58q-28.1,3.26-56.38,4.78c-15.78.86-31.54,1.19-47.31.89-19.59-.38-39.18-1.1-58.75-1.88a414.8,414.8,0,0,1-61.55-7.06c-11.75-2.25-23.26-5.61-35-7.88-16.26-3.16-31.8-8.46-47.32-14-13.12-4.72-26.09-9.62-38.08-17-7.09-4.34-14.75-7.77-21.12-13.28,2-.31,3.92-.66,5.89-.93,8.43-1.16,16.91-2.45,25.4-2.22,8.1.22,16.18,1.61,24.27,2.44,9.76,1,19.28,3.3,28.81,5.43,15.23,3.41,30.77,4.71,46.13,7.21a265.67,265.67,0,0,0,28.58,3.3c18,1,35.81-1.42,53.69-2.47,13.28-.78,25.81-5.38,38.43-9.26a96.9,96.9,0,0,0,26.28-12.84,203.19,203.19,0,0,0,33.87-28.84c4.16-4.46,8.85-8.56,12.16-13.8h-.21a1.3,1.3,0,0,0,1.2-1.3l-.16.17a1.34,1.34,0,0,0,1.25-1.26l-.16.18a1.36,1.36,0,0,0,1.25-1.27l-.19.15A1.62,1.62,0,0,0,420.9,617c2-2.12,3.86-4.33,5.93-6.34,10.52-10.25,18.93-21.91,23.58-36,2.19-6.6,1.2-13-3.42-18.36-6.48-7.51-14.71-11.63-24.76-11.72-5.45,0-10.91.21-16.34-.09-11.08-.61-21.94-2.39-32.3-6.66-24.38-10-44.12-26.26-61.38-45.81-10.57-12-21.17-23.95-33.19-34.49-17.15-15-36.32-25.8-60-26.25-8-.15-16,.07-23.35,3.81-5,2.56-10.29,4.5-15.52,6.54A95.19,95.19,0,0,0,160.46,452c-17.85,12.37-33.56,27.08-47.94,43.29C102.4,506.7,92.29,518.14,80.59,528c-10.54,8.85-21.06,17.79-32.72,25.21a104.54,104.54,0,0,0-12,9.36A37.28,37.28,0,0,0,22.6,587.91C22.37,590.23,21.73,592.52,21.29,594.82ZM397.45,411c-.16-14.95-2.94-26.82-10-37.44-8.25-12.47-19.72-20-34.83-19.89-18,.09-30.83,9.55-38,25.41-9.93,21.79-8.66,43.56,4.52,63.83,16,24.62,49.89,25.16,67.22,1.48A58.67,58.67,0,0,0,397.45,411ZM139.76,399.36a63.14,63.14,0,0,0-1.15-14.07c-2.11-9.69-5.37-18.78-13-25.76-5.12-4.69-10.91-6.26-17.53-4.62-10.19,2.53-17.92,8.63-23.39,17.4-10,15.95-13.24,33.52-11.58,52.06.86,9.6,4.13,18.34,10.78,25.57,8.65,9.41,22.2,11.24,31.39,4.1a55.44,55.44,0,0,0,14.83-17.15C136.56,425.19,139.46,412.62,139.76,399.36Z"/><path class="cls-3" d="M21.29,594.82c.44-2.3,1.08-4.59,1.31-6.91a37.28,37.28,0,0,1,13.26-25.37,104.54,104.54,0,0,1,12-9.36c11.66-7.42,22.18-16.36,32.72-25.21,11.7-9.83,21.81-21.27,31.93-32.68,14.38-16.21,30.09-30.92,47.94-43.29a95.19,95.19,0,0,1,19.71-10.33c5.23-2,10.49-4,15.52-6.54,7.34-3.74,15.3-4,23.35-3.81,23.66.45,42.83,11.21,60,26.25,12,10.54,22.62,22.51,33.19,34.49,17.26,19.55,37,35.77,61.38,45.81,10.36,4.27,21.22,6,32.3,6.66,5.43.3,10.89.05,16.34.09,10,.09,18.28,4.21,24.76,11.72,4.62,5.36,5.61,11.76,3.42,18.36-4.65,14-13.06,25.71-23.58,36-2.07,2-4,4.22-5.93,6.34a2.07,2.07,0,0,0-1.35,1.29l.19-.15a1.75,1.75,0,0,0-1.25,1.27l.16-.18a1.7,1.7,0,0,0-1.25,1.26l.16-.17a1.58,1.58,0,0,0-1.2,1.3h.21c-1.93-.53-3.11.69-4.2,1.9a34.42,34.42,0,0,1-6.43,5c-10,6.8-20.17,13.42-30.72,19.48a154.73,154.73,0,0,1-54.45,19.21c-5.25.8-10.51.34-15.67,1.18A114.41,114.41,0,0,1,269,669a350.35,350.35,0,0,1-40.71-9.17c-11-3.11-21.06-8.78-31.91-12.36-4.8-1.58-9.55-3.42-14.28-5.24-12.8-4.92-25.4-10.54-39.2-12.47-12.33-1.72-24.52-4.07-37.13-2.09C97,629,88.81,631.46,81.33,636.09c-6.15,3.83-12.1,8-18.72,11-6.94,3.17-14,4.61-21.49,1.56a12,12,0,0,0-5.25-1.27c-7.16-6.6-10.74-15.1-13.34-24.26A55.91,55.91,0,0,1,21.41,597,8.74,8.74,0,0,0,21.29,594.82ZM212.57,508c-3.9,0-10,4.55-10.92,7.92-.8,3,.59,5,3.72,5.12,3.81.18,7-1.55,9.93-3.68a5.37,5.37,0,0,0,2.16-6.61C216.59,508.08,214.55,507.82,212.57,508Zm-69.72,12c2.66.18,4.23-1.37,5.38-3.61a29.07,29.07,0,0,0,2.48-9.31c.41-2.85-1.19-4.08-3.83-2.7a36.65,36.65,0,0,0-9.18,7.32,3.9,3.9,0,0,0-.55,5C138.43,518.84,140.09,520.21,142.85,520Z"/><path class="cls-4" d="M487,724.48c.25-1.24,1.24-1.56,2.25-2.06,10.61-5.23,21.95-8.61,33-12.6,9.91-3.58,18.45-9.08,26.94-15,10.26-7.12,19.72-15.29,29.84-22.61,4.93-3.57,8.42-8.53,12.06-13.2a270.93,270.93,0,0,0,30.64-49.93c6.44-13.51,9.67-28,13.58-42.34,4.3-15.72,3.12-31.66,3.09-47.55,0-5-1.56-10-3.11-14.83a122,122,0,0,1-3.49-13.1c-.9-4.47-3.52-8.34-5.72-12.29A148.66,148.66,0,0,0,606.5,452.4c-6.17-6.86-12.29-13.77-18.44-20.65-4.46-5-7.82-10.87-11.23-16.65-1.66-2.8-3.16-5.69-4.67-8.58-5.81-11.07-7.41-22.87-6.78-35.27.52-10,.13-20,.11-29.95a144.17,144.17,0,0,0-13.06-60c-5.31-11.72-10.41-23.56-16.49-34.91-6.92-12.93-14.11-25.72-22.05-38.08-5-7.76-10-15.5-15.36-23s-11.69-13.8-17.66-20.58c-10.68-12.15-23.33-22.26-35.32-33-6.57-5.9-13.37-11.65-20.39-17s-13.92-10.9-20.82-16.43c-3.62-2.91-8.13-4.72-12-7.43-1.68-1.18-3.38-2.21-3.28-4.59,3.91-.14,7.48,1.44,11.08,2.49,11.5,3.37,23.22,5.72,34.85,8.49a123.47,123.47,0,0,1,25.6,9c13.7,6.69,27.09,13.89,39.35,23.08,4.18,3.13,9.05,5.34,13.59,8a76,76,0,0,1,16.62,13.07c5.78,6,12.05,11.5,17.79,17.52,4.84,5.07,10.21,9.61,14.65,15.08a89.7,89.7,0,0,0,8.49,9.17c6,5.58,10.81,12.22,15.81,18.66,11.28,14.52,20.12,30.6,28.16,47,6.82,13.93,12.64,28.42,16,43.76.78,3.63,3,6.95,4.45,10.46,4.49,10.88,8.39,22,13.64,32.58,7.28,14.61,15.59,28.68,24.22,42.52,15,24,25,49.78,29.47,77.71,1.22,7.67,3.05,15.31,3,23.11-.13,15.21,1,30.47-1,45.6-1.66,12.35-2.23,24.93-6.52,36.79A165.36,165.36,0,0,1,685.73,598c-9.37,16-19.4,31.53-32.91,44.45-11.17,10.67-23.57,19.81-36.1,28.79-23,16.51-48.4,28.46-74.88,38.1-11.55,4.2-23,8.78-35.11,11.48C500.18,722.25,493.62,723.51,487,724.48Z"/><path class="cls-5" d="M35.87,647.41a12,12,0,0,1,5.25,1.27c7.45,3.05,14.55,1.61,21.49-1.56,6.62-3,12.57-7.2,18.72-11,7.48-4.63,15.68-7.05,24.41-8.42,12.61-2,24.8.37,37.13,2.09,13.8,1.93,26.4,7.55,39.2,12.47,4.73,1.82,9.48,3.66,14.28,5.24,10.85,3.58,20.86,9.25,31.91,12.36A350.35,350.35,0,0,0,269,669a114.41,114.41,0,0,0,36.13-.61c5.16-.84,10.42-.38,15.67-1.18A154.73,154.73,0,0,0,375.22,648c10.55-6.06,20.68-12.68,30.72-19.48a34.42,34.42,0,0,0,6.43-5c1.09-1.21,2.27-2.43,4.2-1.9-3.31,5.24-8,9.34-12.16,13.8a203.19,203.19,0,0,1-33.87,28.84,96.9,96.9,0,0,1-26.28,12.84c-12.62,3.88-25.15,8.48-38.43,9.26-17.88,1-35.72,3.44-53.69,2.47a265.67,265.67,0,0,1-28.58-3.3c-15.36-2.5-30.9-3.8-46.13-7.21-9.53-2.13-19.05-4.44-28.81-5.43-8.09-.83-16.17-2.22-24.27-2.44-8.49-.23-17,1.06-25.4,2.22-2,.27-3.92.62-5.89.93-6-1.6-12.16-.79-18.21-2a91.15,91.15,0,0,1-21.5-7c-4.48-2.13-8-5.48-11.18-9.2A60.37,60.37,0,0,1,35.87,647.41Z"/><path class="cls-4" d="M386.81,85.22c-3.66-1.87-4.4-4.09-2.11-7a50.34,50.34,0,0,1,4.55-4.69c10.18-10,17-22,21.78-35.31,3.3-9.26,2-18.17-.92-27.1-.57-1.71-1.71-3.23-1.63-5.14,11,5.82,15.7,15.33,16.25,27.36.79,17.07-7.63,29.59-19.93,40.12-4.68,4-10.19,6.83-15.53,9.86C388.36,83.82,387.17,84,386.81,85.22Z"/><path class="cls-4" d="M320.21,65.62c1.14,5.68-1.1,10.38-4.36,14.73A3.55,3.55,0,0,1,312,81.82c-4.31-1.27-8.24-2.79-11.56-6.42-5.65-6.18-8.84-14-14.64-20S273.18,45.29,264.62,45c-5.05-.19-10.11-.05-15.17-.06,10.95-6.49,22.15-8.83,34.47-3.51,7.33,3.17,13.67,7.17,18.54,13.57,3.13,4.11,4.82,8.87,7,13.42.55,1.14.79,2.44,1.43,3.51a4.44,4.44,0,0,0,4,2.32c1.76-.1,2.8-1.34,3.34-3.08S318.75,67.17,320.21,65.62Z"/><path class="cls-4" d="M406.19,4.68a2.12,2.12,0,0,1-2-1A1.94,1.94,0,0,1,406.19,4.68Z"/><path class="cls-4" d="M408.21,5.84a2.08,2.08,0,0,1-1.83-1.08A1.82,1.82,0,0,1,408.21,5.84Z"/><path class="cls-4" d="M389,86.2a2.06,2.06,0,0,1-2.25-1A2.25,2.25,0,0,1,389,86.2Z"/><path class="cls-4" d="M321.28,62.18l-.57,1.24C320.5,62.82,320.81,62.46,321.28,62.18Z"/><path class="cls-6" d="M397.45,411a58.67,58.67,0,0,1-11.11,33.39C369,468,335.12,467.48,319.12,442.86c-13.18-20.27-14.45-42-4.52-63.83,7.22-15.86,20.09-25.32,38-25.41,15.11-.08,26.58,7.42,34.83,19.89C394.51,384.13,397.29,396,397.45,411ZM322.18,384c-.12,4.72,2.78,6.73,6.77,5.12a8.64,8.64,0,0,0,3.28-2.78c3-3.5,3.74-7.8,4.12-12.16.2-2.37,0-4.95-2.8-5.84s-5,.07-6.63,2.41A27.65,27.65,0,0,0,322.18,384Z"/><path class="cls-6" d="M139.76,399.36c-.3,13.26-3.2,25.83-9.65,37.53A55.44,55.44,0,0,1,115.28,454c-9.19,7.14-22.74,5.31-31.39-4.1-6.65-7.23-9.92-16-10.78-25.57-1.66-18.54,1.63-36.11,11.58-52.06,5.47-8.77,13.2-14.87,23.39-17.4,6.62-1.64,12.41-.07,17.53,4.62,7.63,7,10.89,16.07,13,25.76A63.14,63.14,0,0,1,139.76,399.36ZM87.59,385.2c-.06,2.06.38,3.72,2.33,4.6a3.65,3.65,0,0,0,4.47-.82c3.83-4.19,6.85-8.82,7.23-14.73a3.93,3.93,0,0,0-2.52-4.31,4.13,4.13,0,0,0-5,.9A24,24,0,0,0,87.59,385.2Z"/><path class="cls-5" d="M419.55,618.29A2.07,2.07,0,0,1,420.9,617,1.62,1.62,0,0,1,419.55,618.29Z"/><path class="cls-5" d="M418.49,619.41a1.75,1.75,0,0,1,1.25-1.27A1.36,1.36,0,0,1,418.49,619.41Z"/><path class="cls-5" d="M417.4,620.49a1.7,1.7,0,0,1,1.25-1.26A1.34,1.34,0,0,1,417.4,620.49Z"/><path class="cls-5" d="M416.36,621.62a1.58,1.58,0,0,1,1.2-1.3A1.3,1.3,0,0,1,416.36,621.62Z"/><path class="cls-5" d="M212.57,508c2-.14,4,.12,4.89,2.75a5.37,5.37,0,0,1-2.16,6.61c-3,2.13-6.12,3.86-9.93,3.68-3.13-.15-4.52-2.13-3.72-5.12C202.55,512.51,208.67,508,212.57,508Z"/><path class="cls-5" d="M142.85,520c-2.76.26-4.42-1.11-5.7-3.33a3.9,3.9,0,0,1,.55-5,36.65,36.65,0,0,1,9.18-7.32c2.64-1.38,4.24-.15,3.83,2.7a29.07,29.07,0,0,1-2.48,9.31C147.08,518.58,145.51,520.13,142.85,520Z"/><path class="cls-7" d="M322.18,384a27.65,27.65,0,0,1,4.74-13.25c1.67-2.34,3.94-3.28,6.63-2.41s3,3.47,2.8,5.84c-.38,4.36-1.15,8.66-4.12,12.16a8.64,8.64,0,0,1-3.28,2.78C325,390.76,322.06,388.75,322.18,384Z"/><path class="cls-7" d="M87.59,385.2a24,24,0,0,1,6.55-14.36,4.13,4.13,0,0,1,5-.9,3.93,3.93,0,0,1,2.52,4.31c-.38,5.91-3.4,10.54-7.23,14.73a3.65,3.65,0,0,1-4.47.82C88,388.92,87.53,387.26,87.59,385.2Z"/></svg>